<?xml version="1.0" encoding="UTF-8"?>
<svg version="1.1" xmlns="http://www.w3.org/2000/svg" width="260" height="273">
<path d="M0 0 C0.95390625 0.80953125 1.9078125 1.6190625 2.890625 2.453125 C26.44782702 22.87189978 41.89854566 52.95856412 45 84 C47.01385311 119.93137911 41.03694448 154.01960612 17.38671875 182.37109375 C14.21139476 185.86862737 10.94356368 189.26345302 7.625 192.625 C6.69554565 193.5687146 6.69554565 193.5687146 5.74731445 194.53149414 C5.16296631 195.1114917 4.57861816 195.69148926 3.9765625 196.2890625 C3.45143066 196.81193848 2.92629883 197.33481445 2.38525391 197.87353516 C1 199 1 199 -1 199 C-1 199.66 -1 200.32 -1 201 C-24.62190749 220.7293584 -54.1771924 230.4613204 -84.6875 230.3125 C-85.91138428 230.30686035 -87.13526855 230.3012207 -88.39624023 230.29541016 C-125.06983453 229.8072988 -155.47176184 214.85710435 -181 189 C-203.95137599 165.23762132 -215.17137776 132.96003992 -215.1875 100.3125 C-215.19974609 99.02666016 -215.21199219 97.74082031 -215.22460938 96.41601562 C-215.24189749 85.01161941 -213.90839777 74.1059024 -210.8125 63.125 C-210.59891846 62.36670898 -210.38533691 61.60841797 -210.1652832 60.82714844 C-207.89916635 53.14436162 -204.72413821 46.0752858 -201 39 C-200.68659668 38.39671875 -200.37319336 37.7934375 -200.05029297 37.171875 C-184.45476389 7.48724823 -156.38908409 -14.95438862 -124.5769043 -25.15429688 C-82.00220055 -37.96380298 -33.80383516 -29.49761412 0 0 Z M-76 90 C-82.34086487 105.74764243 -88.62989559 121.51492437 -94.80413818 137.32873535 C-95.43501716 138.9436911 -96.067058 140.55819344 -96.70025635 142.17224121 C-97.59004667 144.44163615 -98.4753561 146.71272672 -99.359375 148.984375 C-99.62755035 149.66636963 -99.89572571 150.34836426 -100.17202759 151.05102539 C-101.54458654 154.42620081 -101.54458654 154.42620081 -102 158 C-98.37 158 -94.74 158 -91 158 C-87.535 149.09 -87.535 149.09 -84 140 C-74.43 140 -64.86 140 -55 140 C-51.5625 148.4375 -51.5625 148.4375 -50.48266602 151.09936523 C-50.20092529 151.78716064 -49.91918457 152.47495605 -49.62890625 153.18359375 C-49.34088135 153.89056396 -49.05285645 154.59753418 -48.75610352 155.32592773 C-48.11946155 156.99832767 -48.11946155 156.99832767 -47 158 C-45.14712498 158.07226502 -43.29166122 158.0838122 -41.4375 158.0625 C-39.91962891 158.04896484 -39.91962891 158.04896484 -38.37109375 158.03515625 C-37.58863281 158.02355469 -36.80617188 158.01195312 -36 158 C-44.2002722 135.14508128 -52.99860938 112.55008273 -62 90 C-66.62 90 -71.24 90 -76 90 Z M-32 122 C-30.9171875 122.86625 -30.9171875 122.86625 -29.8125 123.75 C-27.96279483 125.22976414 -26.12877901 126.72939431 -24.3125 128.25 C-22.21753569 130.20114756 -22.21753569 130.20114756 -20 130 C-20.26576313 134.83402639 -20.53232653 139.66800783 -20.79956055 144.50195312 C-20.88993776 146.13866041 -20.98011444 147.77537878 -21.07006836 149.41210938 C-21.66741905 160.27788505 -22.30440056 171.14003562 -23 182 C-23.78375 182.268125 -24.5675 182.53625 -25.375 182.8125 C-28.28114923 183.84814432 -28.28114923 183.84814432 -30 187 C-21.75 187 -13.5 187 -5 187 C-9.19310223 182.79176832 -9.19310223 182.79176832 -12 183 C-12 178.05 -12 173.1 -12 168 C-10.78183594 167.89042969 -9.56367188 167.78085938 -8.30859375 167.66796875 C-6.68483712 167.50840885 -5.0611423 167.34821907 -3.4375 167.1875 C-2.63763672 167.11724609 -1.83777344 167.04699219 -1.01367188 166.97460938 C7.69514659 166.08595443 14.52513463 162.99253905 21 157 C24.59514968 151.5492892 25.50212893 145.97172017 24.5 139.5625 C23.10730763 134.1933044 20.29080036 130.46715496 16 127 C7.64077602 122.55715592 -0.32296305 121.75742957 -9.625 121.375 C-11.18927734 121.29765625 -11.18927734 121.29765625 -12.78515625 121.21875 C-19.29237331 120.94253854 -25.54190061 121.14527801 -32 122 Z " fill="#1F4A0B" transform="translate(215,43)"/>
<path d="M0 0 C1.11393093 3.34179279 0.75376997 4.64991123 0 8 C0 8.99 0 9.98 0 11 C1.32 10.34 2.64 9.68 4 9 C3.46890625 10.00417969 2.9378125 11.00835937 2.390625 12.04296875 C-2.00692905 20.49812409 -5.6963466 28.70051498 -8 38 C-8.22429687 38.87527344 -8.44859375 39.75054687 -8.6796875 40.65234375 C-11.7210582 54.50516233 -9.98085519 68.19230186 -7.36376953 81.92626953 C-6.7772372 85.26989745 -6.39063991 88.62836039 -6 92 C-6.99 92 -7.98 92 -9 92 C-11.10770759 94.88834003 -12 96.38462395 -12 100 C-12.66 100 -13.32 100 -14 100 C-14.45826172 98.90945312 -14.45826172 98.90945312 -14.92578125 97.796875 C-23.17242252 79.67749419 -37.69564189 69.19331092 -55.95703125 62.28515625 C-63.13096277 59.8794294 -70.58463685 58.4439997 -78 57 C-74.20769693 70.84689607 -67.1120225 81.8879775 -57 92 C-56.30261719 92.69738281 -55.60523437 93.39476563 -54.88671875 94.11328125 C-48.85341572 99.79363053 -42.10286448 103.8091132 -35 108 C-33.515 108.99 -33.515 108.99 -32 110 C-32 110.66 -32 111.32 -32 112 C-31.34 112.33 -30.68 112.66 -30 113 C-31 116 -31 116 -34 118 C-34.66 118.99 -35.32 119.98 -36 121 C-36.556875 120.73445313 -37.11375 120.46890625 -37.6875 120.1953125 C-38.450625 119.84210938 -39.21375 119.48890625 -40 119.125 C-40.7425 118.77695313 -41.485 118.42890625 -42.25 118.0703125 C-55.47189466 112.924291 -73.62542587 112.59033546 -86.90234375 117.59375 C-87.92457031 118.0578125 -88.94679687 118.521875 -90 119 C-90.66531738 119.30035156 -91.33063477 119.60070312 -92.01611328 119.91015625 C-101.85624468 124.20829253 -101.85624468 124.20829253 -110 131 C-108.824375 131.37125 -108.824375 131.37125 -107.625 131.75 C-104.73301436 132.74723643 -101.94851487 133.83225002 -99.125 135 C-83.97626483 141.08210412 -68.23948248 141.27784312 -52.4453125 137.65625 C-49.17265278 137.03288624 -46.31934599 136.77676913 -43 137 C-41.125 138.375 -41.125 138.375 -40 140 C-40 140.66 -40 141.32 -40 142 C-40.59014893 141.99476318 -41.18029785 141.98952637 -41.78833008 141.98413086 C-44.46304255 141.96333953 -47.13773801 141.95033299 -49.8125 141.9375 C-51.2056543 141.92493164 -51.2056543 141.92493164 -52.62695312 141.91210938 C-53.51962891 141.90888672 -54.41230469 141.90566406 -55.33203125 141.90234375 C-56.15421143 141.89710693 -56.9763916 141.89187012 -57.82348633 141.88647461 C-60.18172596 141.91258476 -60.18172596 141.91258476 -63 143 C-63 143.66 -63 144.32 -63 145 C-62.154375 144.91621094 -61.30875 144.83242187 -60.4375 144.74609375 C-54.07425763 144.17484813 -48.29851338 143.88849764 -42 145 C-42 145.33 -42 145.66 -42 146 C-43.06476563 145.99097656 -44.12953125 145.98195312 -45.2265625 145.97265625 C-61.74146973 146.17356753 -73.0605342 152.67824111 -85.07421875 163.9453125 C-91.55696622 170.6445761 -95.66973681 178.83063774 -100 187 C-79.50779453 184.49014774 -60.69557651 178.29122903 -47.5078125 161.50390625 C-46 160 -46 160 -43 160 C-43.66 160.99 -44.32 161.98 -45 163 C-43.515 163.99 -43.515 163.99 -42 165 C-42 165.66 -42 166.32 -42 167 C-41.360625 167.28875 -40.72125 167.5775 -40.0625 167.875 C-38 169 -38 169 -37 171 C-36.91691362 172.37548156 -36.89263984 173.75485796 -36.90234375 175.1328125 C-36.90717773 176.34130859 -36.90717773 176.34130859 -36.91210938 177.57421875 C-36.92467773 178.83685547 -36.92467773 178.83685547 -36.9375 180.125 C-36.94201172 180.97449219 -36.94652344 181.82398438 -36.95117188 182.69921875 C-36.96297126 184.79950909 -36.98090694 186.8997633 -37 189 C-37.33 189 -37.66 189 -38 189 C-38.33 182.73 -38.66 176.46 -39 170 C-50.95468921 175.9773446 -56.53278535 183.67355503 -61.12109375 196.015625 C-62.60459724 201.43026644 -62.24884829 207.05844951 -62.1875 212.625 C-62.18685547 213.74390625 -62.18621094 214.8628125 -62.18554688 216.015625 C-62.15970101 220.8287002 -62.07551824 225.29132213 -61 230 C-57.78956118 228.61811547 -55.95063635 227.07578097 -53.75 224.375 C-53.22921875 223.74335938 -52.7084375 223.11171875 -52.171875 222.4609375 C-51.59179688 221.73777344 -51.59179688 221.73777344 -51 221 C-50.34 221.33 -49.68 221.66 -49 222 C-50.875 227.75 -50.875 227.75 -52 230 C-52.99 230 -53.98 230 -55 230 C-55 231.65 -55 233.3 -55 235 C-55.99 235 -56.98 235 -58 235 C-57.484375 235.598125 -56.96875 236.19625 -56.4375 236.8125 C-55.963125 237.534375 -55.48875 238.25625 -55 239 C-55.33 239.99 -55.66 240.98 -56 242 C-64.93884884 242.30301183 -70.05443456 237.75800393 -76.52978516 232.24853516 C-77.76543431 231.19919776 -79.02647769 230.17986706 -80.29296875 229.16796875 C-85.10096585 225.2236837 -88.93193179 220.6717507 -92.78125 215.80078125 C-94.16058807 214.05960978 -95.57227995 212.34297859 -97.03125 210.66796875 C-115.6036456 189.03702388 -123.17374483 159.16672519 -123.1875 131.3125 C-123.19974609 130.02666016 -123.21199219 128.74082031 -123.22460938 127.41601562 C-123.24189749 116.01161941 -121.90839777 105.1059024 -118.8125 94.125 C-118.59891846 93.36670898 -118.38533691 92.60841797 -118.1652832 91.82714844 C-115.89916635 84.14436162 -112.72413821 77.0752858 -109 70 C-108.68659668 69.39671875 -108.37319336 68.7934375 -108.05029297 68.171875 C-92.45476389 38.48724823 -64.38908409 16.04561138 -32.5769043 5.84570312 C-21.9692965 2.65417847 -11.04995286 0.77030921 0 0 Z " fill="#1E4A0A" transform="translate(123,12)"/>
<path d="M0 0 C8.33683586 3.50648032 11.54323974 13.90923482 14.74609375 21.703125 C20.78197254 37.57316145 22.31998534 60.26467904 16.26171875 76.25 C12.46660641 84.52169996 8.35848645 91.43458056 2 98 C-1 97 -1 97 -1.93554688 95.40869141 C-2.19400391 94.72983887 -2.45246094 94.05098633 -2.71875 93.3515625 C-3.15537964 92.22282715 -3.15537964 92.22282715 -3.60083008 91.07128906 C-3.89755615 90.26401367 -4.19428223 89.45673828 -4.5 88.625 C-4.80897217 87.80225586 -5.11794434 86.97951172 -5.4362793 86.13183594 C-15.09005727 60.04996887 -16.10615247 33.87118316 -5 8 C-3.47278956 5.17445262 -1.84522144 2.63603063 0 0 Z " fill="#89C043" transform="translate(125,24)"/>
<path d="M0 0 C19.49506066 0.44583299 38.66223299 9.93477546 52.4375 23.37890625 C57.56668139 28.76960841 61.18735507 34.1172924 64 41 C64.31839844 41.763125 64.63679688 42.52625 64.96484375 43.3125 C66.99462703 48.70031184 67.27331363 53.26041382 67 59 C46.83090133 58.29231233 28.8443749 44.478745 15.3203125 30.63671875 C11.61291567 26.42376781 8.74144265 21.88297673 6 17 C5.50371094 16.11828125 5.00742187 15.2365625 4.49609375 14.328125 C1.92809979 9.4994184 0.35669921 5.46938787 0 0 Z " fill="#89C043" transform="translate(45,69)"/>
<path d="M0 0 C0.71542969 0.52335938 1.43085937 1.04671875 2.16796875 1.5859375 C2.16796875 2.2459375 2.16796875 2.9059375 2.16796875 3.5859375 C3.15796875 4.0809375 3.15796875 4.0809375 4.16796875 4.5859375 C-8.87846724 15.40221349 -29.3764697 18.59342086 -45.83203125 17.5859375 C-57.82813238 16.40984915 -69.24224084 13.39994008 -79.83203125 7.5859375 C-78.79466724 4.19368148 -77.62748597 3.46229266 -74.5234375 1.5859375 C-73.15408604 0.90510826 -71.77728557 0.23911615 -70.39453125 -0.4140625 C-69.67749023 -0.76218994 -68.96044922 -1.11031738 -68.22167969 -1.46899414 C-45.32254041 -12.40884021 -22.15930714 -13.12931782 0 0 Z " fill="#89BF43" transform="translate(92.83203125,135.4140625)"/>
<path d="M0 0 C1.01771484 0.01353516 2.03542969 0.02707031 3.08398438 0.04101562 C5.57738214 0.0761339 8.06965512 0.12531441 10.5625 0.1875 C9.25891082 4.92782429 7.4349016 7.96196804 4.25 11.6875 C3.43660156 12.64269531 2.62320313 13.59789062 1.78515625 14.58203125 C0.68494141 15.87173828 0.68494141 15.87173828 -0.4375 17.1875 C-1.22125 18.239375 -2.005 19.29125 -2.8125 20.375 C-13.40472811 31.72381583 -29.78786663 40.4551528 -45.40625 41.359375 C-47.76061367 41.37260176 -50.08784779 41.32785533 -52.4375 41.1875 C-46.7316564 22.45922868 -31.74450046 10.38397772 -15.23046875 1.453125 C-10.07526681 -0.26704537 -5.39073658 -0.13678512 0 0 Z " fill="#88BE44" transform="translate(75.4375,157.8125)"/>
<path d="M0 0 C0.50151886 21.20267441 -0.24558905 39.99643171 -15.4375 56.375 C-16.94276988 57.93186632 -18.45789317 59.47961299 -20 61 C-20.99 60.67 -21.98 60.34 -23 60 C-26.24824979 45.57659392 -25.90559577 28.2563005 -18.45703125 15.3203125 C-14.46330364 9.16065023 -8.02276212 0 0 0 Z " fill="#88BE44" transform="translate(84,182)"/>
<path d="M0 0 C5.61456211 2.37759518 9.06598644 5.60141505 12 11 C13.78051245 16.34153735 13.70509123 21.07088389 11.4375 26.1875 C9.056926 30.36581781 6.45928512 33.10308283 2 35 C-2.3047966 36.0164809 -6.58257141 36.73111304 -11 37 C-12 36 -12 36 -12.11352539 32.58178711 C-12.11336628 31.06363012 -12.10767226 29.54546771 -12.09765625 28.02734375 C-12.0962413 27.22970108 -12.09482635 26.43205841 -12.09336853 25.61024475 C-12.08775316 23.05262565 -12.07519812 20.49509282 -12.0625 17.9375 C-12.05748698 16.20768355 -12.05292373 14.47786574 -12.04882812 12.74804688 C-12.03777875 8.49866447 -12.02050386 4.24934688 -12 0 C-8.24559745 -1.87720127 -3.98973388 -0.84577692 0 0 Z " fill="#1E460B" transform="translate(215,170)"/>
<path d="M0 0 C9.92300341 5.9115765 16.79077724 15.97784803 20 27 C22.21770335 36.50444292 21.25141951 44.25042682 17 53 C9.29221494 49.59950659 5.18060605 40.42141411 2 33 C1.69964844 32.33355469 1.39929688 31.66710937 1.08984375 30.98046875 C-2.19260255 22.26290206 -2.97075019 8.91225056 0 0 Z " fill="#88BD45" transform="translate(92,202)"/>
<path d="M0 0 C11.84275154 -0.943228 22.51153423 2.97265341 32 10 C36.83482592 14.19067606 40.91930345 17.83376909 43 24 C29.25654504 24.62078341 17.94329208 23.26461233 7 14 C2.96422874 9.75181972 0.30139974 6.02799478 0 0 Z " fill="#88BE45" transform="translate(121,221)"/>
<path d="M0 0 C0.66 0 1.32 0 2 0 C3.67482275 4.26767998 5.33845499 8.53963493 7 12.8125 C7.47695312 14.02744141 7.95390625 15.24238281 8.4453125 16.49414062 C8.89648438 17.65751953 9.34765625 18.82089844 9.8125 20.01953125 C10.23144531 21.09307861 10.65039062 22.16662598 11.08203125 23.27270508 C12 26 12 26 12 29 C4.83171158 30.91154358 -2.77248543 30.25695906 -10 29 C-8.67693291 22.40461028 -6.81571141 16.28632376 -4.4375 10 C-4.12103516 9.14277344 -3.80457031 8.28554687 -3.47851562 7.40234375 C-1.14207688 1.14207688 -1.14207688 1.14207688 0 0 Z " fill="#21420D" transform="translate(145,144)"/>
<path d="M0 0 C0.72445312 -0.020625 1.44890625 -0.04125 2.1953125 -0.0625 C7.53562144 -0.10191187 7.53562144 -0.10191187 10 1.765625 C10.33 2.25546875 10.66 2.7453125 11 3.25 C5.03324059 8.91077175 -0.92716112 11.33930407 -9.1875 11.625 C-13.41620901 11.49326452 -16.42293564 10.63470957 -20 8.25 C-20.33 7.59 -20.66 6.93 -21 6.25 C-19.3970947 5.43501438 -17.79262722 4.62310073 -16.1875 3.8125 C-15.29417969 3.36003906 -14.40085938 2.90757812 -13.48046875 2.44140625 C-8.93437657 0.25785016 -4.95424886 0.03526156 0 0 Z " fill="#86BB45" transform="translate(164,208.75)"/>
<path d="M0 0 C0.33 0.66 0.66 1.32 1 2 C2.32 2.33 3.64 2.66 5 3 C5.99 6.63 6.98 10.26 8 14 C7 15 7 15 5.23413086 15.11352539 C4.48526611 15.10828857 3.73640137 15.10305176 2.96484375 15.09765625 C2.15595703 15.09443359 1.34707031 15.09121094 0.51367188 15.08789062 C-0.33646484 15.07951172 -1.18660156 15.07113281 -2.0625 15.0625 C-2.91650391 15.05798828 -3.77050781 15.05347656 -4.65039062 15.04882812 C-6.76695663 15.03700373 -8.88348685 15.01906769 -11 15 C-10.34 13.35 -9.68 11.7 -9 10 C-7.68 10.33 -6.36 10.66 -5 11 C-5 11.66 -5 12.32 -5 13 C-4.34 13 -3.68 13 -3 13 C-3.185625 11.9275 -3.37125 10.855 -3.5625 9.75 C-3.9304568 6.59608454 -4.04465343 4.90181508 -3 2 C-2.01 2 -1.02 2 0 2 C0 1.34 0 0.68 0 0 Z " fill="#1D470A" transform="translate(146,157)"/>
<path d="M0 0 C3.16115776 1.36983503 3.9927092 1.9890638 6 5 C4.35 5.33 2.7 5.66 1 6 C0.67 5.34 0.34 4.68 0 4 C-0.66 5.98 -1.32 7.96 -2 10 C-2.66 10 -3.32 10 -4 10 C-4.12375 10.49757813 -4.2475 10.99515625 -4.375 11.5078125 C-4.89122633 13.56626501 -5.41355087 15.62318715 -5.9375 17.6796875 C-6.29173143 19.0781086 -6.6458962 20.47654658 -7 21.875 C-7.17789063 22.56980469 -7.35578125 23.26460937 -7.5390625 23.98046875 C-8.54572722 27.96956552 -9.38708039 31.92663842 -10 36 C-10.66 35.34 -11.32 34.68 -12 34 C-11.64094618 28.44064996 -10.43710969 23.35441795 -8.75 18.0625 C-8.53182617 17.36954834 -8.31365234 16.67659668 -8.08886719 15.96264648 C-6.28238554 10.43788805 -4.19667421 4.19667421 0 0 Z " fill="#82B649" transform="translate(125,24)"/>
<path d="M0 0 C2.22652997 3.33979496 3.64941252 6.79338073 5.125 10.5 C5.54072266 11.51513672 5.54072266 11.51513672 5.96484375 12.55078125 C7.15187214 15.5154285 8 17.77680496 8 21 C0.83171158 22.91154358 -6.77248543 22.25695906 -14 21 C-14 20.67 -14 20.34 -14 20 C-8.06 19.67 -2.12 19.34 4 19 C3.34 16.69 2.68 14.38 2 12 C1.875 8.5625 1.875 8.5625 2 6 C1.34 6 0.68 6 0 6 C-1.125 2.25 -1.125 2.25 0 0 Z " fill="#283918" transform="translate(149,152)"/>
<path d="M0 0 C5.25 0 5.25 0 8 1 C9.25 3.0625 9.25 3.0625 10 5 C8.68 5.33 7.36 5.66 6 6 C7.01308951 8.72754868 8.06213418 11.09798083 9.625 13.5625 C11 16 11 16 11 20 C10.34 20 9.68 20 9 20 C7.48987869 17.23456804 5.99369852 14.46183193 4.5 11.6875 C4.07074219 10.90181641 3.64148438 10.11613281 3.19921875 9.30664062 C2.79316406 8.54931641 2.38710937 7.79199219 1.96875 7.01171875 C1.59169922 6.31522217 1.21464844 5.61872559 0.82617188 4.90112305 C0 3 0 3 0 0 Z " fill="#1E490B" transform="translate(11,195)"/>
<path d="M0 0 C0.86367187 0.06703125 1.72734375 0.1340625 2.6171875 0.203125 C5.44932932 0.82072602 6.95257533 1.87060005 9.125 3.75 C8.135 4.08 7.145 4.41 6.125 4.75 C6.125 4.09 6.125 3.43 6.125 2.75 C2.165 2.42 -1.795 2.09 -5.875 1.75 C-5.875 12.31 -5.875 22.87 -5.875 33.75 C-5.215 34.08 -4.555 34.41 -3.875 34.75 C-3.545 35.74 -3.215 36.73 -2.875 37.75 C-4.195 37.42 -5.515 37.09 -6.875 36.75 C-6.875 24.87 -6.875 12.99 -6.875 0.75 C-4.3310922 -0.5219539 -2.82041318 -0.25107536 0 0 Z " fill="#3F4F33" transform="translate(209.875,169.25)"/>
<path d="M0 0 C2.1875 0.3125 2.1875 0.3125 4 1 C3.34 2.32 2.68 3.64 2 5 C2.804375 5.268125 3.60875 5.53625 4.4375 5.8125 C5.283125 6.204375 6.12875 6.59625 7 7 C7.33 7.99 7.66 8.98 8 10 C1.17792193 8.34464282 -4.83373752 6.37399268 -11 3 C-11 2.34 -11 1.68 -11 1 C-4.125 1.875 -4.125 1.875 -3 3 C-2.5875 2.484375 -2.175 1.96875 -1.75 1.4375 C-0.88375 0.7259375 -0.88375 0.7259375 0 0 Z " fill="#254212" transform="translate(82,257)"/>
<path d="M0 0 C0.66 0.33 1.32 0.66 2 1 C1.69255859 1.804375 1.69255859 1.804375 1.37890625 2.625 C-1.38604011 10.66848033 -1.69697008 18.57785798 -2 27 C-4.21747156 23.44152785 -4.23889479 20.51461655 -4.1875 16.375 C-4.18105469 15.22773438 -4.17460938 14.08046875 -4.16796875 12.8984375 C-4 10 -4 10 -3 8 C-3.66 8 -4.32 8 -5 8 C-3.8141763 4.62496331 -2.72426311 2.35277269 0 0 Z " fill="#215003" transform="translate(62,201)"/>
<path d="M0 0 C0.33 0.66 0.66 1.32 1 2 C1.66 2 2.32 2 3 2 C4.32 5.3 5.64 8.6 7 12 C10.96 12 14.92 12 19 12 C19 12.66 19 13.32 19 14 C13.66666667 14 8.33333333 14 3 14 C2.87625 13.46375 2.7525 12.9275 2.625 12.375 C2.00165551 9.87285916 2.00165551 9.87285916 0.9375 7 C0 4 0 4 0 0 Z " fill="#354E27" transform="translate(161,188)"/>
<path d="M0 0 C0.66 0.33 1.32 0.66 2 1 C1.67 1.33 1.34 1.66 1 2 C1.68102783 2 2.36205566 2 3.0637207 2 C27.375 2 27.375 2 31 4 C27.97354845 5.51322577 24.89228139 5.00453618 21.5859375 4.87890625 C20.85629791 4.85529526 20.12665833 4.83168427 19.37490845 4.80735779 C17.04140861 4.73070246 14.70823911 4.64668657 12.375 4.5625 C10.79428707 4.50928115 9.21355795 4.45654074 7.6328125 4.40429688 C3.75499862 4.27508487 -0.12253486 4.13927041 -4 4 C-2.68 2.68 -1.36 1.36 0 0 Z " fill="#5B6E49" transform="translate(185,227)"/>
<path d="M0 0 C2 2 4 4 6 6 C5.01 9.3 4.02 12.6 3 16 C2.34 16 1.68 16 1 16 C0.67 10.72 0.34 5.44 0 0 Z " fill="#244411" transform="translate(0,150)"/>
<path d="M0 0 C1 2 1 2 0.4765625 4.09375 C0.05503906 5.28484375 0.05503906 5.28484375 -0.375 6.5 C-0.65085937 7.2940625 -0.92671875 8.088125 -1.2109375 8.90625 C-2 11 -2 11 -3 13 C-3.66 13 -4.32 13 -5 13 C-5.33 14.65 -5.66 16.3 -6 18 C-6.66 18 -7.32 18 -8 18 C-8.33 18.66 -8.66 19.32 -9 20 C-8.37874765 15.47866344 -6.57070184 11.75834654 -4.5 7.75 C-4.17902344 7.11320312 -3.85804687 6.47640625 -3.52734375 5.8203125 C-1.15496483 1.15496483 -1.15496483 1.15496483 0 0 Z " fill="#324C20" transform="translate(18,75)"/>
<path d="M0 0 C2.49573835 3.74360753 2.62446193 6.66731353 2 11 C0.56624673 15.35550993 -1.01319552 18.28232401 -4.75 21 C-5.4925 21.33 -6.235 21.66 -7 22 C-7 21.01 -7 20.02 -7 19 C-6.34 19 -5.68 19 -5 19 C-4.71125 18.2575 -4.4225 17.515 -4.125 16.75 C-3.17697356 14.43260203 -2.15154089 12.22082885 -1 10 C-0.34 10 0.32 10 1 10 C0.67 6.7 0.34 3.4 0 0 Z " fill="#384928" transform="translate(226,181)"/>
<path d="M0 0 C0.99 0 1.98 0 3 0 C2.31583566 4.17576168 0.98634991 7.88080407 -0.5625 11.8125 C-1.01753906 12.97394531 -1.47257812 14.13539063 -1.94140625 15.33203125 C-2.29074219 16.21246094 -2.64007813 17.09289062 -3 18 C-5.0940067 11.7179799 -2.36180668 5.85317308 0 0 Z " fill="#334722" transform="translate(117,181)"/>
<path d="M0 0 C0 0.99 0 1.98 0 3 C-0.639375 3.598125 -1.27875 4.19625 -1.9375 4.8125 C-4.2913087 6.88640423 -4.2913087 6.88640423 -4.4375 10.125 C-4.623125 11.07375 -4.80875 12.0225 -5 13 C-7.3125 14.125 -7.3125 14.125 -10 15 C-12.27191416 17.02040748 -12.27191416 17.02040748 -14 19 C-12.56563891 14.73568324 -10.44379516 11.80984447 -7.5625 8.375 C-6.78003906 7.43398438 -5.99757813 6.49296875 -5.19140625 5.5234375 C-3.51771192 3.59615312 -1.84095853 1.76400528 0 0 Z " fill="#415433" transform="translate(34,54)"/>
<path d="M0 0 C0.66 0 1.32 0 2 0 C2.8125 2 2.8125 2 3 5 C1.93511261 7.15107253 0.68810693 9.06162178 -0.67578125 11.03515625 C-1.97412012 12.96160006 -3.00544006 14.90348632 -4 17 C-4.66 16.67 -5.32 16.34 -6 16 C-5.73445313 15.34773437 -5.46890625 14.69546875 -5.1953125 14.0234375 C-3.32172003 9.38732183 -1.50684994 4.77169146 0 0 Z " fill="#235204" transform="translate(114,239)"/>
<path d="M0 0 C0.66 0 1.32 0 2 0 C2.66 2.31 3.32 4.62 4 7 C3.01 6.67 2.02 6.34 1 6 C1.33 6.99 1.66 7.98 2 9 C0.35 9.33 -1.3 9.66 -3 10 C-2.69201674 8.51988629 -2.378482 7.04092675 -2.0625 5.5625 C-1.88847656 4.73878906 -1.71445313 3.91507813 -1.53515625 3.06640625 C-1 1 -1 1 0 0 Z " fill="#30441C" transform="translate(145,144)"/>
<path d="M0 0 C2.19858192 3.29787288 3.08315174 6.13806357 4.1875 9.9375 C4.55230469 11.16339844 4.91710937 12.38929687 5.29296875 13.65234375 C5.93853762 16.70898753 6.1197357 18.15430227 5 21 C4.67 18.69 4.34 16.38 4 14 C3.34 14 2.68 14 2 14 C-0.3992233 9.35150485 -0.19957409 5.08913926 0 0 Z " fill="#384B24" transform="translate(252,97)"/>
<path d="M0 0 C0.66 0.33 1.32 0.66 2 1 C1.74438677 3.3431213 1.40729228 5.67843403 1 8 C0.01 8.495 0.01 8.495 -1 9 C-1 8.34 -1 7.68 -1 7 C-1.99 7.33 -2.98 7.66 -4 8 C-5.33333333 7.66666667 -6.66666667 7.33333333 -8 7 C-10.33300933 6.96111651 -12.66709801 6.9551365 -15 7 C-15 6.34 -15 5.68 -15 5 C-10.38 5 -5.76 5 -1 5 C-0.67 3.35 -0.34 1.7 0 0 Z " fill="#133503" transform="translate(126,197)"/>
<path d="M0 0 C2.46800047 1.15173355 4.04783565 2.04783565 6 4 C8.57061311 4.64767793 8.57061311 4.64767793 11 5 C11.33 5.99 11.66 6.98 12 8 C9.8125 8.8125 9.8125 8.8125 7 9 C3.7953315 6.39154889 1.56318408 3.83690637 0 0 Z " fill="#21390D" transform="translate(34,230)"/>
<path d="M0 0 C1.66666667 0 3.33333333 0 5 0 C3.25 6.75 3.25 6.75 1 9 C0.67 9.99 0.34 10.98 0 12 C-1.88059033 10.11940967 -1.12361218 7.50109962 -1.1328125 5.0078125 C-1 3 -1 3 0 0 Z " fill="#1E4204" transform="translate(121,163)"/>
<path d="M0 0 C0.69738281 0.00451172 1.39476563 0.00902344 2.11328125 0.01367188 C3.82555803 0.0253998 5.53779033 0.04333347 7.25 0.0625 C7.25 0.3925 7.25 0.7225 7.25 1.0625 C-2.65 2.5475 -2.65 2.5475 -12.75 4.0625 C-12.42 3.0725 -12.09 2.0825 -11.75 1.0625 C-8.0916892 -0.52216433 -3.91852005 -0.04814817 0 0 Z " fill="#213D13" transform="translate(113.75,13.9375)"/>
<path d="M0 0 C0.66 0.33 1.32 0.66 2 1 C1.29445932 4.66881155 -0.27735506 7.70450534 -2 11 C-2.66 11 -3.32 11 -4 11 C-4 12.32 -4 13.64 -4 15 C-4.66 15 -5.32 15 -6 15 C-3.10933941 4.44191344 -3.10933941 4.44191344 0 0 Z " fill="#83B64B" transform="translate(67,195)"/>
<path d="M0 0 C2.78992366 2.48740182 4.44594313 5.24218857 6.25 8.5 C6.79140625 9.4590625 7.3328125 10.418125 7.890625 11.40625 C9 14 9 14 8 17 C7.731875 16.030625 7.46375 15.06125 7.1875 14.0625 C6.795625 13.051875 6.40375 12.04125 6 11 C5.01 10.67 4.02 10.34 3 10 C2.05078125 8.22265625 2.05078125 8.22265625 1.3125 6.0625 C1.06113281 5.35222656 0.80976563 4.64195313 0.55078125 3.91015625 C0 2 0 2 0 0 Z " fill="#3B502C" transform="translate(240,73)"/>
<path d="M0 0 C0.75 2.9375 0.75 2.9375 1 6 C0.34 6.66 -0.32 7.32 -1 8 C-1.66 5.69 -2.32 3.38 -3 1 C-7.62 1 -12.24 1 -17 1 C-17 0.67 -17 0.34 -17 0 C-14.54203147 -0.19436491 -12.08390706 -0.3807742 -9.625 -0.5625 C-8.92632812 -0.61857422 -8.22765625 -0.67464844 -7.5078125 -0.73242188 C-2.2265625 -1.11328125 -2.2265625 -1.11328125 0 0 Z " fill="#445436" transform="translate(156,132)"/>
<path d="M0 0 C0.66 0.33 1.32 0.66 2 1 C2.625 3.0625 2.625 3.0625 3 5 C-1.1196377 6.29243536 -4.66831683 7.26252625 -9 7 C-9 6.34 -9 5.68 -9 5 C-6.36 4.67 -3.72 4.34 -1 4 C-0.67 2.68 -0.34 1.36 0 0 Z " fill="#213D0E" transform="translate(156,265)"/>
<path d="M0 0 C1.32 0.66 2.64 1.32 4 2 C3.67 4.64 3.34 7.28 3 10 C2.67 9.34 2.34 8.68 2 8 C1.34 8 0.68 8 0 8 C-0.66 6.02 -1.32 4.04 -2 2 C-1.34 1.34 -0.68 0.68 0 0 Z " fill="#213A0C" transform="translate(170,171)"/>
<path d="M0 0 C10.395 0.99 10.395 0.99 21 2 C16.77931034 4.11034483 16.77931034 4.11034483 13 3 C10.91765408 2.93256652 8.83331443 2.91485528 6.75 2.9375 C5.67234375 2.94652344 4.5946875 2.95554687 3.484375 2.96484375 C2.25460938 2.98224609 2.25460938 2.98224609 1 3 C0.67 2.01 0.34 1.02 0 0 Z " fill="#344721" transform="translate(132,12)"/>
<path d="M0 0 C-1.78881736 1.00508801 -3.58114696 2.00392736 -5.375 3 C-6.37273437 3.556875 -7.37046875 4.11375 -8.3984375 4.6875 C-11 6 -11 6 -13 6 C-12.67 5.01 -12.34 4.02 -12 3 C-11.34 3 -10.68 3 -10 3 C-9.67 2.34 -9.34 1.68 -9 1 C-2.49462366 -1.24731183 -2.49462366 -1.24731183 0 0 Z " fill="#3A4C24" transform="translate(196,256)"/>
<path d="M0 0 C0.66 0.33 1.32 0.66 2 1 C2 2.98 2 4.96 2 7 C1.34 7 0.68 7 0 7 C1.98 9.97 1.98 9.97 4 13 C0.63279613 11.60667426 -0.9859524 10.0210714 -3 7 C-2.34 6.34 -1.68 5.68 -1 5 C-1.33 4.01 -1.66 3.02 -2 2 C-1.34 1.34 -0.68 0.68 0 0 Z " fill="#31501E" transform="translate(45,232)"/>
<path d="M0 0 C1.21386936 3.64160808 0.6674695 4.33165469 -0.9375 7.6875 C-1.31777344 8.49574219 -1.69804688 9.30398437 -2.08984375 10.13671875 C-2.39019531 10.75160156 -2.69054687 11.36648437 -3 12 C-3.33 12 -3.66 12 -4 12 C-4.22893297 8.96663814 -4.36475845 6.02534949 -4 3 C-2 0.9375 -2 0.9375 0 0 Z " fill="#83B74B" transform="translate(80,215)"/>
<path d="M0 0 C2.95584151 2.75199037 5.18765147 5.37530293 7 9 C7 10.32 7 11.64 7 13 C6.34 13 5.68 13 5 13 C4.15615325 11.58957044 3.32530504 10.17135868 2.5 8.75 C2.0359375 7.96109375 1.571875 7.1721875 1.09375 6.359375 C0 4 0 4 0 0 Z " fill="#2B451B" transform="translate(15,202)"/>
<path d="M0 0 C-0.99 0.495 -0.99 0.495 -2 1 C-2 1.66 -2 2.32 -2 3 C-5.47325181 4.1577506 -8.36067448 4.06866652 -12 4 C-10 1 -10 1 -8.25 0.3125 C-5.48083033 -0.0721069 -2.79197653 -0.06345401 0 0 Z " fill="#1F370E" transform="translate(175,264)"/>
<path d="M0 0 C1.65 0.33 3.3 0.66 5 1 C1.92000054 4.67230705 -0.2482602 5.56802365 -5 6 C-5.33 5.01 -5.66 4.02 -6 3 C-5.01 3.33 -4.02 3.66 -3 4 C-2.01 2.68 -1.02 1.36 0 0 Z " fill="#294415" transform="translate(199,249)"/>
<path d="M0 0 C0.99 0.99 1.98 1.98 3 3 C3.33 2.01 3.66 1.02 4 0 C3.45144652 4.571279 2.58255197 8.67435795 1 13 C0 10 0 10 -0.5 6.4375 C-0.79473089 3.14902755 -0.79473089 3.14902755 -2 1 C-1.34 0.67 -0.68 0.34 0 0 Z " fill="#324621" transform="translate(252,176)"/>
<path d="M0 0 C4.65272826 1.23160454 6.71202698 3.69750469 9.5703125 7.34375 C11.08924941 9.2526135 11.08924941 9.2526135 14 11 C14 11.66 14 12.32 14 13 C10.12060491 11.41379873 7.66638913 8.90079013 4.75 5.9375 C3.85796875 5.03902344 2.9659375 4.14054687 2.046875 3.21484375 C0 1 0 1 0 0 Z " fill="#87BB50" transform="translate(59,97)"/>
<path d="M0 0 C6.4 0.49230769 6.4 0.49230769 9.4375 3.0625 C10.2109375 4.0215625 10.2109375 4.0215625 11 5 C10.01 5.66 9.02 6.32 8 7 C7.608125 6.566875 7.21625 6.13375 6.8125 5.6875 C4.72209066 3.74125682 2.44810452 2.45562972 0 1 C0 0.67 0 0.34 0 0 Z " fill="#2E481F" transform="translate(183,25)"/>
<path d="M0 0 C1.65 0.33 3.3 0.66 5 1 C5 1.99 5 2.98 5 4 C2.18465063 6.65894107 -0.12793601 8.42636089 -4 9 C-3.67 8.01 -3.34 7.02 -3 6 C0.0625 4.8125 0.0625 4.8125 3 4 C3 3.34 3 2.68 3 2 C2.01 2 1.02 2 0 2 C0 1.34 0 0.68 0 0 Z " fill="#7EB149" transform="translate(169,209)"/>
<path d="M0 0 C-0.33 1.32 -0.66 2.64 -1 4 C-2.3921875 4.1546875 -2.3921875 4.1546875 -3.8125 4.3125 C-7.03254358 5.0070192 -8.02579865 5.47740939 -10 8 C-10.66 7.67 -11.32 7.34 -12 7 C-10.87720538 6.01830524 -9.75168527 5.03972702 -8.625 4.0625 C-7.68527344 3.24458984 -7.68527344 3.24458984 -6.7265625 2.41015625 C-4.23340655 0.37389087 -3.29576226 0 0 0 Z " fill="#81B34D" transform="translate(84,182)"/>
<path d="M0 0 C3.68754757 0.49831724 5.60490662 1.10067643 8 4 C7.67 4.66 7.34 5.32 7 6 C4.69 5.34 2.38 4.68 0 4 C0 2.68 0 1.36 0 0 Z " fill="#304622" transform="translate(217,173)"/>
<path d="M0 0 C1.78016355 2.67024533 2.97163019 5.05030861 4.1875 8 C4.55230469 8.86625 4.91710937 9.7325 5.29296875 10.625 C6 13 6 13 5 16 C2.64551835 13.44931155 2.01672076 12.28982642 1.8125 8.75 C1.9053125 7.38875 1.9053125 7.38875 2 6 C1.34 6 0.68 6 0 6 C-1.125 2.25 -1.125 2.25 0 0 Z " fill="#364A23" transform="translate(149,152)"/>
<path d="M0 0 C3.39417765 3.12621626 5.6062718 5.56541027 7 10 C4.0625 8.9375 4.0625 8.9375 1 7 C0.125 3.3125 0.125 3.3125 0 0 Z " fill="#384F28" transform="translate(233,63)"/>
<path d="M0 0 C2.31 0.33 4.62 0.66 7 1 C6.01 1.33 5.02 1.66 4 2 C3.26676204 4.01508358 3.26676204 4.01508358 3 6 C0.69 5.67 -1.62 5.34 -4 5 C-4 4.34 -4 3.68 -4 3 C0.75 1.875 0.75 1.875 3 3 C3 2.34 3 1.68 3 1 C2.01 0.67 1.02 0.34 0 0 Z " fill="#2D501A" transform="translate(159,16)"/>
<path d="M0 0 C0.33 0.66 0.66 1.32 1 2 C1.66 2.33 2.32 2.66 3 3 C2.34 3 1.68 3 1 3 C1.33 4.65 1.66 6.3 2 8 C0.68 7.67 -0.64 7.34 -2 7 C-2 6.34 -2 5.68 -2 5 C-2.66 5 -3.32 5 -4 5 C-4.33 5.66 -4.66 6.32 -5 7 C-4.67 5.35 -4.34 3.7 -4 2 C-3.67 2.66 -3.34 3.32 -3 4 C-2.34 4 -1.68 4 -1 4 C-0.67 2.68 -0.34 1.36 0 0 Z " fill="#294D17" transform="translate(141,162)"/>
<path d="M0 0 C0.33 0.99 0.66 1.98 1 3 C-2.19990508 5.74277578 -5.00499382 7.6302836 -9 9 C-8.06725891 7.87105124 -7.12859878 6.74699124 -6.1875 5.625 C-5.66542969 4.99851562 -5.14335938 4.37203125 -4.60546875 3.7265625 C-3 2 -3 2 0 0 Z " fill="#334C20" transform="translate(47,42)"/>
<path d="M0 0 C3.3 0.99 6.6 1.98 10 3 C10 3.66 10 4.32 10 5 C8.741875 4.87625 7.48375 4.7525 6.1875 4.625 C5.12595703 4.52058594 5.12595703 4.52058594 4.04296875 4.4140625 C2 4 2 4 -1 2 C-0.67 1.34 -0.34 0.68 0 0 Z " fill="#274012" transform="translate(92,265)"/>
<path d="M0 0 C1.2077558 3.62326739 0.54311128 4.64146369 -1 8 C-1.99 7.34 -2.98 6.68 -4 6 C-3.34 5.67 -2.68 5.34 -2 5 C-1.27840576 3.35636866 -0.60648579 1.68949614 0 0 Z M-6 6 C-5.34 6.33 -4.68 6.66 -4 7 C-4 8.65 -4 10.3 -4 12 C-4.99 11.67 -5.98 11.34 -7 11 C-6.67 9.35 -6.34 7.7 -6 6 Z " fill="#1B3F04" transform="translate(137,132)"/>
<path d="M0 0 C2 1 2 1 3.125 3.125 C4.15945114 6.52391089 4.1385722 9.46640886 4 13 C0.90576832 9.90576832 0.06293995 6.4476188 -0.125 2.125 C-0.08375 1.42375 -0.0425 0.7225 0 0 Z " fill="#293F17" transform="translate(6,180)"/>
<path d="M0 0 C1.65 0.99 3.3 1.98 5 3 C4.34 4.32 3.68 5.64 3 7 C1.0625 6.625 1.0625 6.625 -1 6 C-1.33 5.34 -1.66 4.68 -2 4 C-1.01 4 -0.02 4 1 4 C0.67 2.68 0.34 1.36 0 0 Z " fill="#284A15" transform="translate(33,224)"/>
<path d="M0 0 C1.23593891 3.70781672 0.5678132 4.67510253 -0.9375 8.1875 C-1.31777344 9.08855469 -1.69804688 9.98960937 -2.08984375 10.91796875 C-2.54037109 11.94857422 -2.54037109 11.94857422 -3 13 C-3.33 13 -3.66 13 -4 13 C-4.16494083 4.25813609 -4.16494083 4.25813609 -1.4375 1.3125 C-0.7259375 0.6628125 -0.7259375 0.6628125 0 0 Z " fill="#3C5023" transform="translate(124,168)"/>
<path d="M0 0 C3.3 0.66 6.6 1.32 10 2 C10 2.99 10 3.98 10 5 C6.37 4.01 2.74 3.02 -1 2 C-0.67 1.34 -0.34 0.68 0 0 Z " fill="#2C5B0A" transform="translate(71,125)"/>
<path d="M0 0 C4.3177458 0.50797009 8.03302114 1.19682779 12 3 C12 3.33 12 3.66 12 4 C4.31578947 4.29554656 4.31578947 4.29554656 1 2 C0.67 1.34 0.34 0.68 0 0 Z " fill="#345027" transform="translate(166,18)"/>
<path d="M0 0 C0.99 0.33 1.98 0.66 3 1 C3 1.66 3 2.32 3 3 C3.66 3.33 4.32 3.66 5 4 C3.87926138 4.83905565 2.75325453 5.67107831 1.625 6.5 C0.99851562 6.9640625 0.37203125 7.428125 -0.2734375 7.90625 C-2 9 -2 9 -4 9 C-4 8.34 -4 7.68 -4 7 C-3.01 7 -2.02 7 -1 7 C-1 6.34 -1 5.68 -1 5 C-0.34 5 0.32 5 1 5 C0.67 3.35 0.34 1.7 0 0 Z " fill="#81B44A" transform="translate(92,136)"/>
<path d="M0 0 C0.33 0 0.66 0 1 0 C1 3.3 1 6.6 1 10 C0.01 10.33 -0.98 10.66 -2 11 C-1.85892253 9.54119891 -1.71197585 8.08296449 -1.5625 6.625 C-1.48128906 5.81289062 -1.40007813 5.00078125 -1.31640625 4.1640625 C-1 2 -1 2 0 0 Z " fill="#314A19" transform="translate(8,95)"/>
<path d="M0 0 C-1.14453125 1.55078125 -1.14453125 1.55078125 -3 3 C-5.69921875 2.85546875 -5.69921875 2.85546875 -8.6875 2.1875 C-9.68136719 1.97480469 -10.67523438 1.76210937 -11.69921875 1.54296875 C-12.45847656 1.36378906 -13.21773437 1.18460938 -14 1 C-14 0.67 -14 0.34 -14 0 C-8.97874074 -0.77916092 -5.02296004 -1.13016601 0 0 Z " fill="#2C451C" transform="translate(221,210)"/>
<path d="M0 0 C1.33333333 0.66666667 2.66666667 1.33333333 4 2 C5.0828125 2.433125 5.0828125 2.433125 6.1875 2.875 C8 4 8 4 8.875 6 C8.936875 6.99 8.936875 6.99 9 8 C8.34 8.66 7.68 9.32 7 10 C6.401875 9.0925 5.80375 8.185 5.1875 7.25 C3.51893234 4.77098519 1.82063145 2.36682089 0 0 Z " fill="#425630" transform="translate(231,170)"/>
<path d="M0 0 C0.66 0.33 1.32 0.66 2 1 C1.67 2.32 1.34 3.64 1 5 C-1.31 5.33 -3.62 5.66 -6 6 C-4 4 -2 2 0 0 Z " fill="#304D1C" transform="translate(54,36)"/>
<path d="M0 0 C-0.33 0.66 -0.66 1.32 -1 2 C-3.97 2 -6.94 2 -10 2 C-10.33 1.34 -10.66 0.68 -11 0 C-6.98195309 -0.84098656 -3.98196457 -1.05404945 0 0 Z " fill="#1D390A" transform="translate(113,269)"/>
<path d="M0 0 C0.33 0.66 0.66 1.32 1 2 C0.0390625 3.9453125 0.0390625 3.9453125 -1.375 6.125 C-1.83648437 6.84945312 -2.29796875 7.57390625 -2.7734375 8.3203125 C-3.17820313 8.87460938 -3.58296875 9.42890625 -4 10 C-4.33 10 -4.66 10 -5 10 C-5.08226668 6.95613276 -4.97608217 4.92824652 -4 2 C-1.9375 0.8125 -1.9375 0.8125 0 0 Z " fill="#374D2A" transform="translate(242,208)"/>
<path d="M0 0 C2.97 0.495 2.97 0.495 6 1 C5.79375 1.5775 5.5875 2.155 5.375 2.75 C4.91338739 5.51967567 5.57055055 6.64561267 7 9 C4.03595495 6.19195732 1.55500981 3.81684226 0 0 Z " fill="#81B544" transform="translate(122,226)"/>
<path d="M0 0 C0.95465783 2.16967689 1.14401212 3.56328793 0.3984375 5.82421875 C-0.35870385 7.5684743 -1.17609198 9.28627131 -2 11 C-2.33 11 -2.66 11 -3 11 C-3.32613618 6.32538149 -2.70582788 3.83325617 0 0 Z " fill="#1F370A" transform="translate(252,182)"/>
<path d="M0 0 C1.39195915 4.17587745 -0.17676781 6.13474776 -2 10 C-3.06546953 6.8035914 -3.07427838 4.34252724 -3 1 C-2.01 0.67 -1.02 0.34 0 0 Z " fill="#3D552E" transform="translate(136,138)"/>
<path d="M0 0 C6.64615385 1.47692308 6.64615385 1.47692308 8.4375 4.125 C8.7159375 5.053125 8.7159375 5.053125 9 6 C5.06326356 4.68775452 2.77280706 3.08089673 0 0 Z " fill="#314A26" transform="translate(51,247)"/>
<path d="M0 0 C0.99 0.33 1.98 0.66 3 1 C3.79953138 4.28696233 4.09658936 5.71023192 3 9 C2.34 9 1.68 9 1 9 C0.67 6.03 0.34 3.06 0 0 Z " fill="#213610" transform="translate(0,157)"/>
<path d="M0 0 C0.33 0.66 0.66 1.32 1 2 C1.99 2.33 2.98 2.66 4 3 C4 4.65 4 6.3 4 8 C-0.875 3.25 -0.875 3.25 -2 1 C-1.34 0.67 -0.68 0.34 0 0 Z " fill="#235205" transform="translate(98,90)"/>
<path d="M0 0 C0.99 0.99 1.98 1.98 3 3 C0.03 2.67 -2.94 2.34 -6 2 C-6.33 2.66 -6.66 3.32 -7 4 C-7 3.01 -7 2.02 -7 1 C-4.45132831 -0.27433584 -2.82594567 -0.27570202 0 0 Z " fill="#366514" transform="translate(51,67)"/>
<path d="M0 0 C3.37503669 1.1858237 5.64722731 2.27573689 8 5 C5 6 5 6 2 5 C2 4.01 2 3.02 2 2 C1.34 2 0.68 2 0 2 C0 1.34 0 0.68 0 0 Z " fill="#183A07" transform="translate(196,32)"/>
<path d="M0 0 C0 4.38968456 -2.12805101 5.76905739 -5 9 C-5 5.74188938 -4.4477922 3.89558441 -3 1 C-2.01 0.67 -1.02 0.34 0 0 Z " fill="#435538" transform="translate(235,219)"/>
<path d="M0 0 C2.475 0.99 2.475 0.99 5 2 C5 3.65 5 5.3 5 7 C4.34 6.67 3.68 6.34 3 6 C3 5.34 3 4.68 3 4 C1.68 3.34 0.36 2.68 -1 2 C-0.67 1.34 -0.34 0.68 0 0 Z " fill="#285809" transform="translate(96,203)"/>
<path d="M0 0 C-0.33 1.32 -0.66 2.64 -1 4 C-2.65 4 -4.3 4 -6 4 C-6.33 3.34 -6.66 2.68 -7 2 C-2.25 0 -2.25 0 0 0 Z " fill="#245307" transform="translate(54,192)"/>
<path d="M0 0 C0.99 0.33 1.98 0.66 3 1 C3 3.64 3 6.28 3 9 C2.67 8.34 2.34 7.68 2 7 C1.34 7 0.68 7 0 7 C0 4.69 0 2.38 0 0 Z " fill="#274118" transform="translate(239,180)"/>
<path d="M0 0 C0.99 0 1.98 0 3 0 C3.625 2.375 3.625 2.375 4 5 C3.34 5.66 2.68 6.32 2 7 C0.5393715 4.35261084 0 3.10551666 0 0 Z " fill="#2A4418" transform="translate(11,195)"/>
<path d="M0 0 C0.99 0.495 0.99 0.495 2 1 C2.75 3.375 2.75 3.375 3 6 C2.34 6.99 1.68 7.98 1 9 C-0.4783226 6.04335481 -0.06032783 3.25770263 0 0 Z " fill="#263D13" transform="translate(192,188)"/>
<path d="M0 0 C0.99 0.33 1.98 0.66 3 1 C3.8125 2.875 3.8125 2.875 4 5 C3.01 6.485 3.01 6.485 2 8 C0.74335022 5.09399739 0 3.20395416 0 0 Z " fill="#31461E" transform="translate(173,184)"/>
<path d="M0 0 C1.32 0.33 2.64 0.66 4 1 C2.35 2.65 0.7 4.3 -1 6 C-1.33 4.68 -1.66 3.36 -2 2 C-1.34 2 -0.68 2 0 2 C0 1.34 0 0.68 0 0 Z " fill="#82B54A" transform="translate(67,178)"/>
<path d="M0 0 C1.98 0.66 3.96 1.32 6 2 C6 2.99 6 3.98 6 5 C3.69 4.34 1.38 3.68 -1 3 C-0.67 2.01 -0.34 1.02 0 0 Z " fill="#364A24" transform="translate(223,164)"/>
<path d="M0 0 C3.16115776 1.36983503 3.9927092 1.9890638 6 5 C3 5 3 5 0 3 C0 2.01 0 1.02 0 0 Z " fill="#245308" transform="translate(64,104)"/>
<path d="M0 0 C0.33 0.99 0.66 1.98 1 3 C0.071875 3.1546875 0.071875 3.1546875 -0.875 3.3125 C-3.36526484 3.87525373 -3.36526484 3.87525373 -5 7 C-4.625 4.0625 -4.625 4.0625 -4 1 C-2 0 -2 0 0 0 Z " fill="#184004" transform="translate(14,92)"/>
</svg>
